<svg xmlns="http://www.w3.org/2000/svg" width="229.906" height="27.188" viewBox="0 0 229.906 27.188">
  <defs>
    <style>
      .cls-1 {
        fill: #f63;
        fill-rule: evenodd;
      }
    </style>
  </defs>
  <path id="sslogo" class="cls-1" d="M19.607,28.522a4.087,4.087,0,0,1-3.125-1.035,4.8,4.8,0,0,1-.957-3.324H9.764a8.048,8.048,0,0,0,4.824,7.647,11.763,11.763,0,0,0,5.019,1.054,9.817,9.817,0,0,0,6.426-1.944A6.6,6.6,0,0,0,28.4,25.525a7.319,7.319,0,0,0-1.885-5.177,14.428,14.428,0,0,0-6.045-3.433,10.952,10.952,0,0,1-3.32-1.825,2.655,2.655,0,0,1-.937-1.971,2.98,2.98,0,0,1,.84-2.225,3.2,3.2,0,0,1,2.344-.826,3.082,3.082,0,0,1,2.451.972,4.169,4.169,0,0,1,.85,2.825h5.723a8.209,8.209,0,0,0-1.1-4.25,7.422,7.422,0,0,0-3.154-2.9A10.293,10.293,0,0,0,19.49,5.69a10.085,10.085,0,0,0-6.475,2.025,6.515,6.515,0,0,0-2.549,5.367,6.811,6.811,0,0,0,1.875,4.786A15.253,15.253,0,0,0,18.494,21.4a10.439,10.439,0,0,1,3.233,1.717,3.176,3.176,0,0,1,.889,2.443q0,2.961-3.008,2.961h0ZM52.225,17.133Q52.185,11.7,49.451,8.7a9.607,9.607,0,0,0-7.48-3.006A9.554,9.554,0,0,0,34.432,8.75q-2.715,3.061-2.715,8.51v4.523q0.039,5.25,2.773,8.165a9.808,9.808,0,0,0,7.52,2.915,9.692,9.692,0,0,0,7.51-2.943q2.7-2.943,2.705-8.265V17.133ZM46.463,21.82a9.092,9.092,0,0,1-1.113,4.986,3.764,3.764,0,0,1-3.34,1.608,3.862,3.862,0,0,1-3.437-1.644,9.265,9.265,0,0,1-1.113-5.113v-4.7a9.719,9.719,0,0,1,1.133-5.113,3.748,3.748,0,0,1,3.379-1.68,3.726,3.726,0,0,1,3.4,1.744,10.218,10.218,0,0,1,1.094,5.322v4.6ZM65.76,32.5q4.316,0,6.592-1.962a7.256,7.256,0,0,0,2.275-5.812,6.622,6.622,0,0,0-1.035-3.787A4.957,4.957,0,0,0,70.643,18.9,5.545,5.545,0,0,0,73.26,16.77a6.166,6.166,0,0,0,.957-3.469A6.5,6.5,0,0,0,71.9,7.9q-2.314-1.843-6.767-1.844H56.346V32.5H65.76ZM66.131,21Q68.9,21.093,68.9,24.653a3.646,3.646,0,0,1-.8,2.525,2.991,2.991,0,0,1-2.344.89H62.088V21h4.043ZM62.088,10.5h3.047a3.488,3.488,0,0,1,2.539.781,3.552,3.552,0,0,1,.781,2.579q0,3.252-3.379,3.251H62.088V10.5Zm31.387,6.249H84.529V10.5H95.076V6.053H78.787V32.5H95.115V28.068H84.529V21.057h8.945v-4.3ZM111.307,32.5h6.172V32.246L112.5,21.42q4.121-2.107,4.121-7.375a7.474,7.474,0,0,0-2.353-5.912,9.751,9.751,0,0,0-6.67-2.08h-9.16V32.5h5.742V22.837h2.851Zm-7.129-22h3.359q3.34,0,3.34,3.978a4.392,4.392,0,0,1-.859,2.843,3.122,3.122,0,0,1-2.579,1.063h-3.261V10.5Zm25.39,18.019a4.087,4.087,0,0,1-3.125-1.035,4.8,4.8,0,0,1-.957-3.324h-5.761a8.047,8.047,0,0,0,4.824,7.647,11.759,11.759,0,0,0,5.019,1.054,9.816,9.816,0,0,0,6.426-1.944,6.6,6.6,0,0,0,2.363-5.395,7.321,7.321,0,0,0-1.884-5.177,14.433,14.433,0,0,0-6.045-3.433,10.953,10.953,0,0,1-3.321-1.825,2.654,2.654,0,0,1-.937-1.971,2.98,2.98,0,0,1,.84-2.225,3.2,3.2,0,0,1,2.344-.826,3.083,3.083,0,0,1,2.451.972,4.171,4.171,0,0,1,.849,2.825h5.723a8.2,8.2,0,0,0-1.1-4.25,7.417,7.417,0,0,0-3.154-2.9,10.292,10.292,0,0,0-4.668-1.026,10.083,10.083,0,0,0-6.474,2.025,6.513,6.513,0,0,0-2.549,5.367,6.811,6.811,0,0,0,1.875,4.786,15.255,15.255,0,0,0,6.152,3.533,10.44,10.44,0,0,1,3.233,1.717,3.177,3.177,0,0,1,.888,2.443q0,2.961-3.008,2.961h0Zm32.618-11.389Q162.145,11.7,159.412,8.7a10.812,10.812,0,0,0-15.019.054q-2.715,3.061-2.715,8.51v4.523q0.039,5.25,2.773,8.165a9.808,9.808,0,0,0,7.52,2.915,9.689,9.689,0,0,0,7.509-2.943q2.706-2.943,2.706-8.265V17.133Zm-5.762,4.686a9.092,9.092,0,0,1-1.113,4.986,3.765,3.765,0,0,1-3.34,1.608,3.862,3.862,0,0,1-3.438-1.644,9.267,9.267,0,0,1-1.113-5.113v-4.7a9.714,9.714,0,0,1,1.133-5.113,4.21,4.21,0,0,1,6.777.064,10.219,10.219,0,0,1,1.094,5.322v4.6Zm23.418,1.871a6.4,6.4,0,0,1-.977,3.715,3.919,3.919,0,0,1-3.125,1.026,3.569,3.569,0,0,1-3.252-1.471q-0.947-1.471-.947-5.413v-5a9.858,9.858,0,0,1,1.016-4.932,3.566,3.566,0,0,1,3.261-1.5,3.811,3.811,0,0,1,3.116,1.063,6.732,6.732,0,0,1,.927,3.86h5.762a10.556,10.556,0,0,0-2.744-6.939q-2.412-2.416-7.061-2.416a9.421,9.421,0,0,0-7.382,2.952q-2.657,2.952-2.657,8.4v4.45q0,5.467,2.569,8.419t7.392,2.952q4.59,0,7.11-2.325t2.734-6.848h-5.742ZM195.115,6.053h-5.742V32.5h5.742V6.053ZM215.037,32.5h6.133L212.225,6.053h-5.254L198.084,32.5h6.074l1.524-5.413h7.832Zm-5.449-19.29,2.656,9.427h-5.312Zm19.98-7.157h-5.742V32.5h15.82V28.068H229.568V6.053Z" transform="translate(-9.75 -5.688)"/>
</svg>
